<svg width="21" height="21" viewBox="0 0 21 21" fill="none" xmlns="http://www.w3.org/2000/svg">
<path d="M10.5002 0C4.71055 0 0 4.71021 0 10.5002C0 16.2905 4.71055 21.0003 10.5002 21.0003C16.29 21.0003 21 16.2905 21 10.5002C20.9998 4.71021 16.2898 0 10.5002 0ZM15.3426 8.88232L9.82964 14.3957C9.70963 14.5158 9.49702 14.5158 9.37684 14.3957L5.67829 10.697C5.6182 10.6367 5.58501 10.5565 5.58501 10.4704C5.58518 10.3846 5.61837 10.3039 5.67829 10.2433L6.15102 9.77074C6.21111 9.71082 6.29145 9.67797 6.37776 9.67797C6.46355 9.67797 6.54407 9.71082 6.60399 9.77074L9.48731 12.6541C9.55115 12.7186 9.65499 12.7186 9.71899 12.6541L14.4169 7.95611C14.5371 7.83593 14.7501 7.83593 14.8699 7.95611L15.3426 8.42952C15.4027 8.4891 15.4366 8.57013 15.4366 8.65541C15.4366 8.74172 15.4027 8.82206 15.3426 8.88232Z" fill="#707070"/>
</svg>
