<svg width="21" height="21" viewBox="0 0 21 21" fill="none" xmlns="http://www.w3.org/2000/svg">
<path d="M10.5001 0C4.71025 0 0 4.71042 0 10.5008C0 16.2899 4.71025 21.0002 10.5001 21.0002C16.2899 21.0002 21 16.2899 21 10.5008C21 4.71042 16.2899 0 10.5001 0ZM15.3315 14.843L14.8586 15.3162C14.7391 15.4369 14.5258 15.4369 14.4057 15.3162L10.6317 11.5426C10.6007 11.5111 10.5592 11.4942 10.5154 11.4942C10.4717 11.4942 10.4301 11.5112 10.3991 11.5426L6.62533 15.3164C6.50531 15.4371 6.29219 15.4371 6.17217 15.3164L5.69945 14.8431C5.63936 14.7834 5.60599 14.7025 5.60599 14.6176C5.60599 14.5316 5.63936 14.4509 5.69945 14.3902L9.47343 10.6165C9.53761 10.5522 9.53761 10.4485 9.47343 10.3845L5.69945 6.61052C5.63936 6.55025 5.60599 6.46974 5.60599 6.38411C5.60599 6.29814 5.63936 6.21746 5.69945 6.15736L6.17217 5.68464C6.29219 5.56463 6.50531 5.56463 6.62533 5.68464L10.3993 9.45828C10.4608 9.51973 10.5702 9.51973 10.6317 9.45828L14.4055 5.68447C14.5257 5.56429 14.739 5.56429 14.8585 5.68447L15.3314 6.15736C15.456 6.2818 15.456 6.48574 15.3314 6.61052L11.5569 10.3843C11.4929 10.4483 11.4929 10.552 11.5569 10.6164L15.3315 14.39C15.4561 14.5151 15.4561 14.7182 15.3315 14.843Z" fill="#707070"/>
</svg>
