<svg width="16" height="16" viewBox="0 0 16 16" fill="none" xmlns="http://www.w3.org/2000/svg">
<path d="M13.8306 2.21901C13.5703 1.95865 13.1482 1.95865 12.8878 2.21901L8.0249 7.08193L3.162 2.21901C2.90165 1.95865 2.47954 1.95865 2.21919 2.21901C1.95884 2.47935 1.95884 2.90147 2.21919 3.16181L7.0821 8.02474L2.2192 12.8876C1.95885 13.148 1.95885 13.5701 2.2192 13.8305C2.47955 14.0908 2.90166 14.0908 3.16201 13.8305L8.0249 8.96754L12.8878 13.8305C13.1482 14.0908 13.5703 14.0908 13.8306 13.8305C14.091 13.5701 14.091 13.148 13.8306 12.8877L8.9677 8.02474L13.8306 3.16181C14.091 2.90147 14.091 2.47935 13.8306 2.21901Z" fill="#9C9C9C"/>
</svg>
